# Blender v2.79 (sub 0) OBJ File: ''
# www.blender.org
mtllib BasicTree.mtl
o Cylinder
v -0.175041 0.466644 -0.171586
v -0.175041 -0.023584 -0.171586
v -0.138203 0.466644 -0.202438
v -0.138203 -0.023584 -0.202438
v -0.096053 0.466644 -0.225510
v -0.096053 -0.023584 -0.225510
v -0.050213 0.466644 -0.239916
v -0.050213 -0.023584 -0.239916
v -0.002443 0.466644 -0.245102
v -0.002443 -0.023584 -0.245102
v 0.045421 0.466644 -0.240869
v 0.045421 -0.023584 -0.240869
v 0.091540 0.466644 -0.227380
v 0.091540 -0.023584 -0.227380
v 0.134140 0.466644 -0.205152
v 0.134140 -0.023584 -0.205152
v 0.171586 0.466644 -0.175041
v 0.171586 -0.023584 -0.175041
v 0.202438 0.466644 -0.138203
v 0.202438 -0.023584 -0.138203
v 0.225510 0.466644 -0.096053
v 0.225510 -0.023584 -0.096053
v 0.239916 0.466644 -0.050213
v 0.239916 -0.023584 -0.050213
v 0.245102 0.466644 -0.002443
v 0.245102 -0.023584 -0.002443
v 0.240869 0.466644 0.045421
v 0.240869 -0.023584 0.045421
v 0.227380 0.466644 0.091540
v 0.227380 -0.023584 0.091540
v 0.205152 0.466644 0.134141
v 0.205152 -0.023584 0.134141
v 0.175041 0.466644 0.171586
v 0.175041 -0.023584 0.171586
v 0.138202 0.466644 0.202438
v 0.138202 -0.023584 0.202438
v 0.096053 0.466644 0.225510
v 0.096053 -0.023584 0.225510
v 0.050213 0.466644 0.239916
v 0.050213 -0.023584 0.239916
v 0.002443 0.466644 0.245102
v 0.002443 -0.023584 0.245102
v -0.045421 0.466644 0.240869
v -0.045421 -0.023584 0.240869
v -0.091540 0.466644 0.227380
v -0.091540 -0.023584 0.227380
v -0.134141 0.466644 0.205152
v -0.134141 -0.023584 0.205152
v -0.171586 0.466644 0.175041
v -0.171586 -0.023584 0.175041
v -0.202438 0.466644 0.138202
v -0.202438 -0.023584 0.138202
v -0.225510 0.466644 0.096053
v -0.225510 -0.023584 0.096053
v -0.239916 0.466644 0.050213
v -0.239916 -0.023584 0.050213
v -0.245102 0.466644 0.002442
v -0.245102 -0.023584 0.002442
v -0.240869 0.466644 -0.045422
v -0.240869 -0.023584 -0.045422
v -0.227380 0.466644 -0.091540
v -0.227380 -0.023584 -0.091540
v -0.205152 0.466644 -0.134141
v -0.205152 -0.023584 -0.134141
v -0.144086 1.356321 -0.141242
v -0.113762 1.356321 -0.166638
v -0.079067 1.356321 -0.185630
v -0.041333 1.356321 -0.197488
v -0.002011 1.356321 -0.201757
v 0.037389 1.356321 -0.198273
v 0.075352 1.356321 -0.187169
v 0.110419 1.356321 -0.168872
v 0.141242 1.356321 -0.144086
v 0.166638 1.356321 -0.113762
v 0.185630 1.356321 -0.079067
v 0.197488 1.356321 -0.041333
v 0.201757 1.356321 -0.002011
v 0.198273 1.356321 0.037389
v 0.187169 1.356321 0.075352
v 0.168872 1.356321 0.110419
v 0.144086 1.356321 0.141242
v 0.113762 1.356321 0.166638
v 0.079067 1.356321 0.185630
v 0.041333 1.356321 0.197489
v 0.002011 1.356321 0.201757
v -0.037389 1.356321 0.198273
v -0.075352 1.356321 0.187169
v -0.110419 1.356321 0.168872
v -0.141242 1.356321 0.144086
v -0.166638 1.356321 0.113762
v -0.185630 1.356321 0.079067
v -0.197489 1.356321 0.041333
v -0.201757 1.356321 0.002010
v -0.198273 1.356321 -0.037389
v -0.187169 1.356321 -0.075352
v -0.168872 1.356321 -0.110419
v -0.796311 1.356320 -0.780595
v -0.628723 1.356320 -0.920949
v -0.436974 1.356320 -1.025911
v -0.228433 1.356320 -1.091448
v -0.011112 1.356320 -1.115041
v 0.206635 1.356320 -1.095784
v 0.416441 1.356320 -1.034416
v 0.610244 1.356320 -0.933297
v 0.780596 1.356320 -0.796311
v 0.920949 1.356320 -0.628724
v 1.025912 1.356320 -0.436974
v 1.091449 1.356320 -0.228433
v 1.115042 1.356320 -0.011112
v 1.095784 1.356320 0.206635
v 1.034417 1.356320 0.416442
v 0.933297 1.356320 0.610245
v 0.796311 1.356320 0.780596
v 0.628723 1.356320 0.920950
v 0.436974 1.356320 1.025912
v 0.228432 1.356320 1.091449
v 0.011112 1.356320 1.115042
v -0.206635 1.356320 1.095784
v -0.416442 1.356320 1.034417
v -0.610245 1.356320 0.933297
v -0.780596 1.356320 0.796311
v -0.920950 1.356320 0.628723
v -1.025912 1.356320 0.436974
v -1.091449 1.356320 0.228432
v -1.115041 1.356320 0.011111
v -1.095784 1.356320 -0.206636
v -1.034416 1.356320 -0.416443
v -0.933296 1.356320 -0.610245
v -0.026504 6.408471 -0.025981
v -0.020926 6.408471 -0.030652
v -0.014544 6.408471 -0.034146
v -0.007603 6.408471 -0.036327
v -0.000370 6.408471 -0.037112
v 0.006877 6.408471 -0.036471
v 0.013860 6.408471 -0.034429
v 0.020311 6.408471 -0.031063
v 0.025981 6.408471 -0.026504
v 0.030652 6.408471 -0.020926
v 0.034145 6.408471 -0.014544
v 0.036327 6.408471 -0.007603
v 0.037112 6.408471 -0.000370
v 0.036471 6.408471 0.006877
v 0.034429 6.408471 0.013860
v 0.031063 6.408471 0.020311
v 0.026504 6.408471 0.025981
v 0.020926 6.408471 0.030652
v 0.014544 6.408471 0.034145
v 0.007603 6.408471 0.036327
v 0.000370 6.408471 0.037112
v -0.006878 6.408471 0.036471
v -0.013861 6.408471 0.034428
v -0.020311 6.408471 0.031063
v -0.025981 6.408471 0.026504
v -0.030652 6.408471 0.020926
v -0.034146 6.408471 0.014544
v -0.036327 6.408471 0.007603
v -0.037112 6.408471 0.000370
v -0.036471 6.408471 -0.006878
v -0.034429 6.408471 -0.013861
v -0.031063 6.408471 -0.020311
vn -0.6421 0.0000 -0.7667
vn -0.4802 0.0000 -0.8772
vn -0.2998 0.0000 -0.9540
vn -0.1079 0.0000 -0.9942
vn 0.0881 0.0000 -0.9961
vn 0.2807 0.0000 -0.9598
vn 0.4626 0.0000 -0.8866
vn 0.6267 0.0000 -0.7793
vn 0.7666 0.0000 -0.6421
vn 0.8772 0.0000 -0.4802
vn 0.9540 0.0000 -0.2998
vn 0.9942 0.0000 -0.1079
vn 0.9961 0.0000 0.0881
vn 0.9598 0.0000 0.2807
vn 0.8866 0.0000 0.4626
vn 0.7793 0.0000 0.6267
vn 0.6421 0.0000 0.7667
vn 0.4802 0.0000 0.8772
vn 0.2998 0.0000 0.9540
vn 0.1079 0.0000 0.9942
vn -0.0881 0.0000 0.9961
vn -0.2807 0.0000 0.9598
vn -0.4626 0.0000 0.8866
vn -0.6267 0.0000 0.7793
vn -0.7667 0.0000 0.6421
vn -0.8772 0.0000 0.4802
vn -0.9540 0.0000 0.2998
vn -0.9942 0.0000 0.1079
vn -0.9961 0.0000 -0.0881
vn -0.9598 0.0000 -0.2807
vn 0.0000 -1.0000 -0.0000
vn -0.8866 0.0000 -0.4626
vn -0.7793 0.0000 -0.6267
vn -0.4620 0.0484 0.8855
vn -0.6413 0.0484 -0.7658
vn -0.7784 0.0484 -0.6259
vn 0.8762 0.0484 -0.4796
vn 0.2995 0.0484 0.9529
vn -0.9930 0.0484 0.1078
vn 0.2804 0.0484 -0.9587
vn 0.8855 0.0484 0.4620
vn -0.6259 0.0484 0.7784
vn -0.4796 0.0484 -0.8762
vn 0.9529 0.0484 -0.2995
vn 0.1078 0.0484 0.9930
vn -0.9949 0.0484 -0.0880
vn 0.4620 0.0484 -0.8855
vn 0.7784 0.0484 0.6259
vn -0.7658 0.0484 0.6413
vn -0.2995 0.0484 -0.9529
vn 0.9930 0.0484 -0.1078
vn -0.0880 0.0484 0.9949
vn -0.9587 0.0484 -0.2804
vn 0.6259 0.0484 -0.7784
vn 0.6413 0.0484 0.7658
vn -0.8762 0.0484 0.4796
vn -0.1078 0.0484 -0.9930
vn 0.9949 0.0484 0.0880
vn -0.2804 0.0484 0.9587
vn -0.8855 0.0484 -0.4620
vn 0.7658 0.0484 -0.6413
vn 0.4796 0.0484 0.8762
vn -0.9529 0.0484 0.2995
vn 0.0880 0.0484 -0.9949
vn 0.9587 0.0484 0.2804
vn -0.4697 0.2077 -0.8580
vn -0.9744 0.2077 -0.0862
vn 0.7623 0.2077 0.6130
vn -0.2933 0.2077 -0.9332
vn -0.9389 0.2077 -0.2746
vn 0.6281 0.2077 0.7499
vn -0.1056 0.2077 -0.9725
vn -0.8672 0.2077 -0.4525
vn 0.4697 0.2077 0.8580
vn 0.0862 0.2077 -0.9744
vn -0.7623 0.2077 -0.6130
vn 0.2933 0.2077 0.9332
vn 0.2746 0.2077 -0.9389
vn 0.1056 0.2077 0.9725
vn 0.4525 0.2077 -0.8672
vn -0.0862 0.2077 0.9744
vn 0.6130 0.2077 -0.7623
vn -0.2746 0.2077 0.9389
vn 0.7499 0.2077 -0.6281
vn -0.4525 0.2077 0.8672
vn 0.8580 0.2077 -0.4697
vn -0.6130 0.2077 0.7623
vn 0.9332 0.2077 -0.2933
vn -0.7499 0.2077 0.6281
vn 0.9725 0.2077 -0.1056
vn -0.8580 0.2077 0.4697
vn 0.9744 0.2077 0.0862
vn -0.9332 0.2077 0.2933
vn 0.9389 0.2077 0.2746
vn -0.6281 0.2077 -0.7499
vn -0.9725 0.2077 0.1056
vn 0.8672 0.2077 0.4525
vn 0.0000 1.0000 -0.0000
usemtl Material.001
s off
f 1//1 3//1 4//1 2//1
f 3//2 5//2 6//2 4//2
f 5//3 7//3 8//3 6//3
f 7//4 9//4 10//4 8//4
f 9//5 11//5 12//5 10//5
f 11//6 13//6 14//6 12//6
f 13//7 15//7 16//7 14//7
f 15//8 17//8 18//8 16//8
f 17//9 19//9 20//9 18//9
f 19//10 21//10 22//10 20//10
f 21//11 23//11 24//11 22//11
f 23//12 25//12 26//12 24//12
f 25//13 27//13 28//13 26//13
f 27//14 29//14 30//14 28//14
f 29//15 31//15 32//15 30//15
f 31//16 33//16 34//16 32//16
f 33//17 35//17 36//17 34//17
f 35//18 37//18 38//18 36//18
f 37//19 39//19 40//19 38//19
f 39//20 41//20 42//20 40//20
f 41//21 43//21 44//21 42//21
f 43//22 45//22 46//22 44//22
f 45//23 47//23 48//23 46//23
f 47//24 49//24 50//24 48//24
f 49//25 51//25 52//25 50//25
f 51//26 53//26 54//26 52//26
f 53//27 55//27 56//27 54//27
f 55//28 57//28 58//28 56//28
f 57//29 59//29 60//29 58//29
f 59//30 61//30 62//30 60//30
f 4//31 6//31 8//31 10//31 12//31 14//31 16//31 18//31 20//31 22//31 24//31 26//31 28//31 30//31 32//31 34//31 36//31 38//31 40//31 42//31 44//31 46//31 48//31 50//31 52//31 54//31 56//31 58//31 60//31 62//31 64//31 2//31
f 61//32 63//32 64//32 62//32
f 63//33 1//33 2//33 64//33
f 45//34 87//34 88//34 47//34
f 1//35 65//35 66//35 3//35
f 63//36 96//36 65//36 1//36
f 19//37 74//37 75//37 21//37
f 37//38 83//38 84//38 39//38
f 55//39 92//39 93//39 57//39
f 11//40 70//40 71//40 13//40
f 29//41 79//41 80//41 31//41
f 47//42 88//42 89//42 49//42
f 3//43 66//43 67//43 5//43
f 21//44 75//44 76//44 23//44
f 39//45 84//45 85//45 41//45
f 57//46 93//46 94//46 59//46
f 13//47 71//47 72//47 15//47
f 31//48 80//48 81//48 33//48
f 49//49 89//49 90//49 51//49
f 5//50 67//50 68//50 7//50
f 23//51 76//51 77//51 25//51
f 41//52 85//52 86//52 43//52
f 59//53 94//53 95//53 61//53
f 15//54 72//54 73//54 17//54
f 33//55 81//55 82//55 35//55
f 51//56 90//56 91//56 53//56
f 7//57 68//57 69//57 9//57
f 25//58 77//58 78//58 27//58
f 43//59 86//59 87//59 45//59
f 61//60 95//60 96//60 63//60
f 17//61 73//61 74//61 19//61
f 35//62 82//62 83//62 37//62
f 53//63 91//63 92//63 55//63
f 9//64 69//64 70//64 11//64
f 27//65 78//65 79//65 29//65
f 90//31 122//31 123//31 91//31
f 77//31 109//31 110//31 78//31
f 91//31 123//31 124//31 92//31
f 78//31 110//31 111//31 79//31
f 65//31 97//31 98//31 66//31
f 92//31 124//31 125//31 93//31
f 79//31 111//31 112//31 80//31
f 66//31 98//31 99//31 67//31
f 93//31 125//31 126//31 94//31
f 80//31 112//31 113//31 81//31
f 67//31 99//31 100//31 68//31
f 94//31 126//31 127//31 95//31
f 81//31 113//31 114//31 82//31
f 68//31 100//31 101//31 69//31
f 95//31 127//31 128//31 96//31
f 82//31 114//31 115//31 83//31
f 69//31 101//31 102//31 70//31
f 96//31 128//31 97//31 65//31
f 83//31 115//31 116//31 84//31
f 70//31 102//31 103//31 71//31
f 84//31 116//31 117//31 85//31
f 71//31 103//31 104//31 72//31
f 85//31 117//31 118//31 86//31
f 72//31 104//31 105//31 73//31
f 86//31 118//31 119//31 87//31
f 73//31 105//31 106//31 74//31
f 87//31 119//31 120//31 88//31
f 74//31 106//31 107//31 75//31
f 88//31 120//31 121//31 89//31
f 75//31 107//31 108//31 76//31
f 89//31 121//31 122//31 90//31
f 76//31 108//31 109//31 77//31
f 98//66 130//66 131//66 99//66
f 125//67 157//67 158//67 126//67
f 112//68 144//68 145//68 113//68
f 99//69 131//69 132//69 100//69
f 126//70 158//70 159//70 127//70
f 113//71 145//71 146//71 114//71
f 100//72 132//72 133//72 101//72
f 127//73 159//73 160//73 128//73
f 114//74 146//74 147//74 115//74
f 101//75 133//75 134//75 102//75
f 128//76 160//76 129//76 97//76
f 115//77 147//77 148//77 116//77
f 102//78 134//78 135//78 103//78
f 116//79 148//79 149//79 117//79
f 103//80 135//80 136//80 104//80
f 117//81 149//81 150//81 118//81
f 104//82 136//82 137//82 105//82
f 118//83 150//83 151//83 119//83
f 105//84 137//84 138//84 106//84
f 119//85 151//85 152//85 120//85
f 106//86 138//86 139//86 107//86
f 120//87 152//87 153//87 121//87
f 107//88 139//88 140//88 108//88
f 121//89 153//89 154//89 122//89
f 108//90 140//90 141//90 109//90
f 122//91 154//91 155//91 123//91
f 109//92 141//92 142//92 110//92
f 123//93 155//93 156//93 124//93
f 110//94 142//94 143//94 111//94
f 97//95 129//95 130//95 98//95
f 124//96 156//96 157//96 125//96
f 111//97 143//97 144//97 112//97
f 129//98 160//98 159//98 158//98 157//98 156//98 155//98 154//98 153//98 152//98 151//98 150//98 149//98 148//98 147//98 146//98 145//98 144//98 143//98 142//98 141//98 140//98 139//98 138//98 137//98 136//98 135//98 134//98 133//98 132//98 131//98 130//98
